<?xml version="1.0" encoding="utf-8"?>
<!-- Generator: Adobe Illustrator 25.2.1, SVG Export Plug-In . SVG Version: 6.00 Build 0)  -->
<svg version="1.1" id="Layer_1" xmlns="http://www.w3.org/2000/svg" xmlns:xlink="http://www.w3.org/1999/xlink" x="0px" y="0px"
	 viewBox="0 0 1201 342" style="enable-background:new 0 0 1201 342;" xml:space="preserve">
<style type="text/css">
	.st0{fill:#FFFFFF;}
</style>
<g transform="translate(0.000000,342.000000) scale(0.100000,-0.100000)">
	<path class="st0" d="M30,2260V1100h320h320v430v430h440h440v-430v-430h321h321l-4,408c-5,441-7,462-65,582c-39,81-134,171-205,195
		c-53,18-76,35-45,35c32,0,144,65,196,115c98,93,141,212,141,391c0,236-99,428-263,507c-72,35-175,62-292,76c-58,7-359,11-857,11H30
		V2260z M1480,2690v-150h-365H750v150v150h365h365V2690z"/>
	<path class="st0" d="M2420,2260V1100h320h320v1160v1160h-320h-320V2260z"/>
	<path class="st0" d="M3290,2260V1100h320h320v355v355h398c425,0,525,7,662,47c110,32,170,65,247,137c149,139,223,427,194,761
		c-30,346-131,516-359,601c-154,58-131,57-989,61l-793,4V2260z M4740,2700v-180h-385h-385v180v180h385h385V2700z"/>
	<path class="st0" d="M5670,2260V1100h315h315v355v355h403c516,0,625,13,790,96c143,72,231,194,284,391c25,93,27,110,27,333
		c0,222-2,240-26,332c-75,276-217,396-528,443c-77,12-239,15-837,15h-743V2260z M7120,2700v-180h-390h-390v180v180h390h390V2700z"/>
	<path class="st0" d="M8040,2260V1100h935h935v310v310h-570h-570v125v125h545h545v300v300h-545h-545v115v115h570h570v310v310h-935
		h-935V2260z"/>
	<path class="st0" d="M10140,2260V1100h910h910v280v280h-595h-595v880v880h-315h-315V2260z"/>
	<path class="st0" d="M4187,923c-4-3-7-213-7-465V0h3915h3915v465v465H8102C5952,930,4190,927,4187,923z"/>
	<path class="st0" d="M1000,495V70h305h305v130v130h-200h-200v30v30h190h190v110v110h-190h-190v25v25h200h200v130v130h-305h-305V495
		z"/>
	<path class="st0" d="M1700,790V660h120h120V365V70h120h120v295v295h115h115v130v130h-355h-355V790z"/>
	<path class="st0" d="M2603,906c-22-8-55-23-72-35c-62-45-64-53-74-427c-6-188-7-349-4-358c5-14,25-16,130-16h124l6,83
		c4,45,7,119,7,165v82h100h100l2-162l3-163h135h135v360c0,358,0,360-23,397c-14,23-42,46-74,62c-51,25-56,26-252,25
		C2711,919,2631,914,2603,906z M2918,628l-3-33h-100h-100l-3,33l-3,32h106h106L2918,628z"/>
	<path class="st0" d="M3297,914c-4-4-7-196-7-426V70h305h306l-3,122l-3,123l-167,3l-168,2l-2,298l-3,297l-126,3
		C3360,919,3301,917,3297,914z"/>
	<path class="st0" d="M10,490V70h125h125v172c0,94,3,169,6,166c3-4,25-80,48-170l43-163h83h82l52,170l51,169l3-172l2-172h120h120
		v420v421l-142-3l-142-3l-65-308c-36-169-68-302-70-295s-30,146-61,308l-56,295l-162,3l-162,2V490z"/>
</g>
</svg>
